<svg width="273" height="50" viewBox="0 0 273 50" fill="none" xmlns="http://www.w3.org/2000/svg">
<path d="M8.33398 10.1836H36.5742C39.131 10.1836 41.2038 12.2563 41.2038 14.8131V45.3681C41.2038 47.925 39.131 49.9977 36.5742 49.9977H8.33398V10.1836Z" fill="white"/>
<path fill-rule="evenodd" clip-rule="evenodd" d="M36.5742 12.4984H10.6488V47.6829H36.5742C37.8526 47.6829 38.889 46.6466 38.889 45.3681V14.8131C38.889 13.5347 37.8526 12.4984 36.5742 12.4984ZM8.33398 10.1836V49.9977H36.5742C39.131 49.9977 41.2038 47.925 41.2038 45.3681V14.8131C41.2038 12.2563 39.131 10.1836 36.5742 10.1836H8.33398Z" fill="url(#paint0_linear_203_42)"/>
<path d="M4.16602 5.09375H32.4062C34.9631 5.09375 37.0358 7.16647 37.0358 9.7233V40.2783C37.0358 42.8351 34.9631 44.9078 32.4062 44.9078H4.16602V5.09375Z" fill="white"/>
<path fill-rule="evenodd" clip-rule="evenodd" d="M32.4062 7.40852H6.48079V42.5931H32.4062C33.6847 42.5931 34.721 41.5567 34.721 40.2783V9.7233C34.721 8.44488 33.6847 7.40852 32.4062 7.40852ZM4.16602 5.09375V44.9078H32.4062C34.9631 44.9078 37.0358 42.8351 37.0358 40.2783V9.7233C37.0358 7.16647 34.9631 5.09375 32.4062 5.09375H4.16602Z" fill="url(#paint1_linear_203_42)"/>
<path d="M0 0H28.2402C30.7971 0 32.8698 2.07272 32.8698 4.62955V35.1845C32.8698 37.7414 30.7971 39.8141 28.2402 39.8141H0V0Z" fill="white"/>
<path fill-rule="evenodd" clip-rule="evenodd" d="M28.2402 2.31477H2.31477V37.4993H28.2402C29.5186 37.4993 30.555 36.463 30.555 35.1845V4.62955C30.555 3.35113 29.5186 2.31477 28.2402 2.31477ZM0 0V39.8141H28.2402C30.7971 39.8141 32.8698 37.7414 32.8698 35.1845V4.62955C32.8698 2.07272 30.7971 0 28.2402 0H0Z" fill="url(#paint2_linear_203_42)"/>
<path d="M54.7012 7.57472H59.7621L71.6621 36.6409H72.0725L83.9725 7.57472H89.0335V42.5909H85.0668V15.9868H84.7248L73.7823 42.5909H69.9524L59.0098 15.9868H58.6679V42.5909H54.7012V7.57472Z" fill="#3767FC"/>
<path d="M107.999 43.1381C105.469 43.1381 103.286 42.5795 101.451 41.4625C99.6269 40.334 98.2192 38.761 97.2276 36.7435C96.2473 34.7146 95.7572 32.3551 95.7572 29.665C95.7572 26.975 96.2473 24.6041 97.2276 22.5524C98.2192 20.4892 99.5984 18.882 101.365 17.7308C103.143 16.5681 105.218 15.9868 107.589 15.9868C108.957 15.9868 110.307 16.2148 111.641 16.6707C112.975 17.1267 114.189 17.8676 115.283 18.8934C116.377 19.9079 117.249 21.2529 117.899 22.9285C118.548 24.6041 118.873 26.6672 118.873 29.1179V30.8277H98.6296V27.3397H114.77C114.77 25.8579 114.474 24.5357 113.881 23.373C113.299 22.2104 112.467 21.2928 111.385 20.6203C110.313 19.9478 109.048 19.6115 107.589 19.6115C105.982 19.6115 104.591 20.0105 103.417 20.8084C102.254 21.5949 101.36 22.6207 100.733 23.886C100.106 25.1512 99.7922 26.5076 99.7922 27.9552V30.2805C99.7922 32.2639 100.134 33.9452 100.818 35.3244C101.513 36.6922 102.477 37.7352 103.708 38.4533C104.939 39.16 106.369 39.5133 107.999 39.5133C109.059 39.5133 110.017 39.3651 110.872 39.0688C111.738 38.761 112.484 38.3051 113.111 37.701C113.738 37.0854 114.223 36.3217 114.565 35.4099L118.463 36.5041C118.053 37.8264 117.363 38.989 116.394 39.9921C115.425 40.9837 114.228 41.7588 112.804 42.3174C111.379 42.8645 109.777 43.1381 107.999 43.1381Z" fill="#3767FC"/>
<path d="M125.011 42.5909V16.3288H128.91V20.4322H129.252C129.799 19.0302 130.682 17.9417 131.902 17.1666C133.121 16.3801 134.586 15.9868 136.296 15.9868C138.029 15.9868 139.47 16.3801 140.622 17.1666C141.784 17.9417 142.69 19.0302 143.34 20.4322H143.614C144.286 19.0758 145.295 17.9987 146.64 17.2008C147.985 16.3915 149.598 15.9868 151.479 15.9868C153.827 15.9868 155.747 16.722 157.241 18.1924C158.734 19.6514 159.48 21.9254 159.48 25.0144V42.5909H155.445V25.0144C155.445 23.0767 154.915 21.6918 153.855 20.8597C152.795 20.0276 151.547 19.6115 150.111 19.6115C148.264 19.6115 146.834 20.1701 145.819 21.2871C144.805 22.3928 144.298 23.7948 144.298 25.4932V42.5909H140.194V24.6041C140.194 23.1109 139.71 21.9083 138.741 20.9965C137.772 20.0732 136.524 19.6115 134.997 19.6115C133.948 19.6115 132.968 19.8908 132.056 20.4493C131.155 21.0079 130.426 21.783 129.867 22.7746C129.32 23.7549 129.046 24.8891 129.046 26.1771V42.5909H125.011Z" fill="#3767FC"/>
<path d="M177.527 43.1381C175.156 43.1381 173.076 42.5738 171.286 41.4454C169.508 40.3169 168.118 38.7382 167.115 36.7093C166.123 34.6804 165.627 32.3095 165.627 29.5966C165.627 26.861 166.123 24.473 167.115 22.4327C168.118 20.3923 169.508 18.8079 171.286 17.6795C173.076 16.551 175.156 15.9868 177.527 15.9868C179.898 15.9868 181.973 16.551 183.751 17.6795C185.54 18.8079 186.931 20.3923 187.923 22.4327C188.926 24.473 189.427 26.861 189.427 29.5966C189.427 32.3095 188.926 34.6804 187.923 36.7093C186.931 38.7382 185.54 40.3169 183.751 41.4454C181.973 42.5738 179.898 43.1381 177.527 43.1381ZM177.527 39.5133C179.328 39.5133 180.81 39.0517 181.973 38.1284C183.135 37.2051 183.996 35.9912 184.554 34.4866C185.113 32.982 185.392 31.352 185.392 29.5966C185.392 27.8413 185.113 26.2056 184.554 24.6896C183.996 23.1736 183.135 21.9482 181.973 21.0136C180.81 20.0789 179.328 19.6115 177.527 19.6115C175.726 19.6115 174.244 20.0789 173.082 21.0136C171.919 21.9482 171.059 23.1736 170.5 24.6896C169.941 26.2056 169.662 27.8413 169.662 29.5966C169.662 31.352 169.941 32.982 170.5 34.4866C171.059 35.9912 171.919 37.2051 173.082 38.1284C174.244 39.0517 175.726 39.5133 177.527 39.5133Z" fill="#3767FC"/>
<path d="M195.587 42.5909V16.3288H199.485V20.2955H199.759C200.237 18.996 201.104 17.9417 202.357 17.1324C203.611 16.3231 205.025 15.9184 206.598 15.9184C206.894 15.9184 207.264 15.9241 207.709 15.9355C208.154 15.9469 208.49 15.964 208.718 15.9868V20.0903C208.581 20.0561 208.268 20.0048 207.777 19.9364C207.299 19.8566 206.791 19.8167 206.256 19.8167C204.979 19.8167 203.839 20.0846 202.836 20.6203C201.844 21.1446 201.058 21.8741 200.477 22.8088C199.907 23.7321 199.622 24.7865 199.622 25.9719V42.5909H195.587Z" fill="#3767FC"/>
<path d="M213.501 42.5909V16.3288H217.536V42.5909H213.501ZM215.553 11.9518C214.766 11.9518 214.088 11.6839 213.518 11.1482C212.959 10.6124 212.68 9.96841 212.68 9.21611C212.68 8.46381 212.959 7.81979 213.518 7.28406C214.088 6.74833 214.766 6.48047 215.553 6.48047C216.339 6.48047 217.012 6.74833 217.57 7.28406C218.14 7.81979 218.425 8.46381 218.425 9.21611C218.425 9.96841 218.14 10.6124 217.57 11.1482C217.012 11.6839 216.339 11.9518 215.553 11.9518Z" fill="#3767FC"/>
<path d="M224.174 42.5909V39.5133L239.083 20.3638V20.0903H224.653V16.3288H244.281V19.5432L229.782 38.5559V38.8294H244.76V42.5909H224.174Z" fill="#3767FC"/>
<path d="M261.234 43.1381C258.703 43.1381 256.52 42.5795 254.685 41.4625C252.861 40.334 251.454 38.761 250.462 36.7435C249.482 34.7146 248.992 32.3551 248.992 29.665C248.992 26.975 249.482 24.6041 250.462 22.5524C251.454 20.4892 252.833 18.882 254.6 17.7308C256.378 16.5681 258.452 15.9868 260.823 15.9868C262.191 15.9868 263.542 16.2148 264.875 16.6707C266.209 17.1267 267.423 17.8676 268.517 18.8934C269.611 19.9079 270.483 21.2529 271.133 22.9285C271.783 24.6041 272.108 26.6672 272.108 29.1179V30.8277H251.864V27.3397H268.004C268.004 25.8579 267.708 24.5357 267.115 23.373C266.534 22.2104 265.702 21.2928 264.619 20.6203C263.547 19.9478 262.282 19.6115 260.823 19.6115C259.216 19.6115 257.825 20.0105 256.651 20.8084C255.489 21.5949 254.594 22.6207 253.967 23.886C253.34 25.1512 253.027 26.5076 253.027 27.9552V30.2805C253.027 32.2639 253.369 33.9452 254.052 35.3244C254.748 36.6922 255.711 37.7352 256.942 38.4533C258.173 39.16 259.604 39.5133 261.234 39.5133C262.294 39.5133 263.251 39.3651 264.106 39.0688C264.972 38.761 265.719 38.3051 266.346 37.701C266.973 37.0854 267.457 36.3217 267.799 35.4099L271.697 36.5041C271.287 37.8264 270.597 38.989 269.629 39.9921C268.66 40.9837 267.463 41.7588 266.038 42.3174C264.613 42.8645 263.012 43.1381 261.234 43.1381Z" fill="#3767FC"/>
<defs>
<linearGradient id="paint0_linear_203_42" x1="8.33398" y1="30.0906" x2="51.3888" y2="30.0906" gradientUnits="userSpaceOnUse">
<stop/>
<stop offset="1" stop-color="#3767FC"/>
</linearGradient>
<linearGradient id="paint1_linear_203_42" x1="4.16602" y1="25.0008" x2="44.2116" y2="25.0008" gradientUnits="userSpaceOnUse">
<stop/>
<stop offset="1" stop-color="#3767FC"/>
</linearGradient>
<linearGradient id="paint2_linear_203_42" x1="0" y1="19.9071" x2="41.6659" y2="19.9071" gradientUnits="userSpaceOnUse">
<stop/>
<stop offset="1" stop-color="#3767FC"/>
</linearGradient>
</defs>
</svg>
