<?xml version="1.0" standalone="no"?>
<!DOCTYPE svg PUBLIC "-//W3C//DTD SVG 20010904//EN"
 "http://www.w3.org/TR/2001/REC-SVG-20010904/DTD/svg10.dtd">
<svg version="1.0" xmlns="http://www.w3.org/2000/svg"
 width="260.000000pt" height="260.000000pt" viewBox="0 0 260.000000 260.000000"
 preserveAspectRatio="xMidYMid meet">
<metadata>
Created by potrace 1.14, written by Peter Selinger 2001-2017
</metadata>
<g transform="translate(0.000000,260.000000) scale(0.100000,-0.100000)"
fill="#000000" stroke="none">
<path d="M409 2350 c-1 -3 -2 -395 -2 -873 l-2 -867 93 0 92 0 0 -113 0 -113
90 2 89 2 3 -112 3 -111 635 -1 c394 -1 646 3 665 9 48 16 93 55 117 100 21
42 21 44 22 763 l0 721 -27 46 c-30 51 -64 78 -118 96 -33 11 -37 15 -42 57
-8 78 -76 155 -149 171 -19 4 -28 12 -28 26 0 69 -53 152 -117 183 -36 17 -76
18 -680 19 -354 0 -643 -2 -644 -5z"/>
</g>
</svg>
